{"title":"Don Henley ++ Cass County (2015.Country.Rock)","uid":12502928,"size":153942257,"categoryP":"audio","categoryS":"music","magnet":"?xt=urn:btih:7d2f9094128cfa13c34ed381de640d3d60e2eb88&amp;dn=Don+Henley+%2B%2B+Cass+County+%282015.Country.Rock%29&amp;tr=udp%3A%2F%2Ftracker.leechers-paradise.org%3A6969&amp;tr=udp%3A%2F%2Fzer0day.ch%3A1337&amp;tr=udp%3A%2F%2Fopen.demonii.com%3A1337&amp;tr=udp%3A%2F%2Ftracker.coppersurfer.tk%3A6969&amp;tr=udp%3A%2F%2Fexodus.desync.com%3A6969","seeders":8,"leechers":1,"uploader":"MeRaDil","files":18,"time":1443397691,"description":"DON HENLEY - CASS COUNTY\r\n\r\n \nhttp://gifyu.com/images/CassCounty.png\r\n \nhttp://gifyu.com/images/CassCounty-1.png\r\n\r\n\r\nMPEG Audio * MP3 * 320Kbps * 2Ch. * 44,1KHz * Country/Rock * Web\r\n\r\nBramble Rose ft.Mick Jagger &amp; Miranda Lambert\r\nThe Cost of Living ft.Merle Haggard\r\nNo,Thank You\r\nWaiting Tables\r\nToo Far Gone\r\nTake a Picture of This\r\nThat Old Flame ft.Martina McBride\r\nThe Brand New Tennessee Waltz\r\nWords Can Break Your Heart\r\nWhen I Stop Dreaming ft.Dolly Parton\r\nPraying For Rain\r\nToo Much Pride\r\nTrain In The Distance\r\nShe Sang Hymns Out of Tune\r\nA Younger Man\r\nWhere I Am Now\r\n \nhttps://thepiratebay.la/user/MeRaDil\r\n\r\nGeneral\r\nBramble Rose  ft. Mick Jagger &amp; Miranda Lambert.mp3\r\nFormat                                   : MPEG Audio\r\nFile size                                : 10.4 MiB\r\nDuration                                 : 4mn 30s\r\nOverall bit rate mode                    : Constant\r\nOverall bit rate                         : 320 Kbps\r\nAlbum                                    : Cass County\r\nTrack name                               : Bramble Rose\r\nPerformer                                : Don Henley ft. Mick Jagger &amp; Miranda Lambert\r\nPublisher                                : Past Masters Holdings . Capitol Records\r\nGenre                                    : Country/Southern Rock\r\nReleased date                            : UTC USA - september 25 - 2015\r\nRecorded date                            : 2015\r\nWriting library                          : LAME3.99r\r\nCover                                    : Yes\r\n\r\nAudio\r\nFormat                                   : MPEG Audio\r\nFormat version                           : Version 1\r\nFormat profile                           : Layer 3\r\nMode                                     : Joint stereo\r\nDuration                                 : 4mn 30s\r\nBit rate mode                            : Constant\r\nBit rate                                 : 320 Kbps\r\nChannel(s)                               : 2 channels\r\nSampling rate                            : 44.1 KHz\r\nCompression mode                         : Lossy\r\nStream size                              : 10.3 MiB (100%)\r\nWriting library                          : LAME3.99r\r\nEncoding settings                        : -m j -V 4 -q 3 -lowpass 20.5\r\n\r\nGeneral\r\nThe Cost of Living  ft. Merle Haggard.mp3\r\nFormat                                   : MPEG Audio\r\nFile size                                : 8.45 MiB\r\nDuration                                 : 3mn 40s\r\nOverall bit rate mode                    : Constant\r\nOverall bit rate                         : 320 Kbps\r\nAlbum                                    : Cass County\r\nTrack name                               : The Cost of Living\r\nPerformer                                : Don Henley ft. Merle Haggard\r\nPublisher                                : Past Masters Holdings . Capitol Records\r\nGenre                                    : Country/Southern Rock\r\nReleased date                            : UTC USA - september 25 - 2015\r\nRecorded date                            : 2015\r\nWriting library                          : LAME3.99r\r\nCover                                    : Yes\r\n\r\nAudio\r\nFormat                                   : MPEG Audio\r\nFormat version                           : Version 1\r\nFormat profile                           : Layer 3\r\nMode                                     : Joint stereo\r\nDuration                                 : 3mn 40s\r\nBit rate mode                            : Constant\r\nBit rate                                 : 320 Kbps\r\nChannel(s)                               : 2 channels\r\nSampling rate                            : 44.1 KHz\r\nCompression mode                         : Lossy\r\nStream size                              : 8.41 MiB (100%)\r\nWriting library                          : LAME3.99r\r\n\r\nGeneral\r\nNo, Thank You.mp3\r\nFormat                                   : MPEG Audio\r\nFile size                                : 8.64 MiB\r\nDuration                                 : 3mn 45s\r\nOverall bit rate mode                    : Constant\r\nOverall bit rate                         : 320 Kbps\r\nAlbum                                    : Cass County\r\nTrack name                               : No,Thank You\r\nPerformer                                : Don Henley\r\nPublisher                                : Past Masters Holdings . Capitol Records\r\nGenre                                    : Country/Southern Rock\r\nReleased date                            : UTC USA - september 25 - 2015\r\nRecorded date                            : 2015\r\nWriting library                          : LAME3.99r\r\nCover                                    : Yes\r\n\r\nAudio\r\nFormat                                   : MPEG Audio\r\nFormat version                           : Version 1\r\nFormat profile                           : Layer 3\r\nMode                                     : Joint stereo\r\nMode extension                           : MS Stereo\r\nDuration                                 : 3mn 45s\r\nBit rate mode                            : Constant\r\nBit rate                                 : 320 Kbps\r\nChannel(s)                               : 2 channels\r\nSampling rate                            : 44.1 KHz\r\nCompression mode                         : Lossy\r\nStream size                              : 8.60 MiB (100%)\r\nWriting library                          : LAME3.99r\r\n\r\nEtc","torrent":{"xt":"urn:btih:7d2f9094128cfa13c34ed381de640d3d60e2eb88","amp;dn":"Don+Henley+%2B%2B+Cass+County+%282015.Country.Rock%29","amp;tr":["udp%3A%2F%2Ftracker.leechers-paradise.org%3A6969","udp%3A%2F%2Fzer0day.ch%3A1337","udp%3A%2F%2Fopen.demonii.com%3A1337","udp%3A%2F%2Ftracker.coppersurfer.tk%3A6969","udp%3A%2F%2Fexodus.desync.com%3A6969"],"infoHash":"7d2f9094128cfa13c34ed381de640d3d60e2eb88","infoHashBuffer":{"type":"Buffer","data":[125,47,144,148,18,140,250,19,195,78,211,129,222,100,13,61,96,226,235,136]},"announce":[],"urlList":[]}}